<?xml version="1.0" standalone="no"?>
<!DOCTYPE svg PUBLIC "-//W3C//DTD SVG 20010904//EN"
 "http://www.w3.org/TR/2001/REC-SVG-20010904/DTD/svg10.dtd">
<svg version="1.0" xmlns="http://www.w3.org/2000/svg"
 width="512.000000pt" height="512.000000pt" viewBox="0 0 512.000000 512.000000"
 preserveAspectRatio="xMidYMid meet">

<g transform="translate(0.000000,512.000000) scale(0.100000,-0.100000)"
fill="#000000" stroke="none">
<path d="M3371 4264 c-55 -15 -80 -31 -211 -142 -41 -34 -88 -74 -105 -87 -16
-13 -41 -35 -55 -48 -25 -22 -131 -110 -213 -176 -71 -56 -118 -95 -136 -112
-9 -8 -65 -55 -126 -105 -60 -49 -114 -94 -120 -100 -5 -6 -44 -37 -85 -69
-41 -32 -79 -63 -85 -69 -21 -24 -67 -47 -82 -42 -13 5 -14 17 -9 60 3 29 12
68 20 87 21 50 30 175 16 233 -21 94 -111 182 -220 214 -19 6 -54 18 -78 26
-44 17 -92 12 -92 -8 0 -6 -11 -33 -25 -61 -13 -27 -25 -58 -25 -68 0 -11 -7
-31 -15 -45 -8 -15 -26 -62 -40 -104 -27 -81 -69 -175 -109 -243 -13 -22 -38
-68 -56 -103 -19 -35 -50 -85 -69 -112 -20 -27 -62 -84 -94 -128 -52 -71 -88
-116 -130 -162 -15 -17 -107 -176 -107 -185 0 -3 -10 -27 -22 -53 -20 -42 -22
-64 -23 -192 0 -120 3 -151 18 -177 36 -66 32 -70 -230 -280 -36 -29 -70 -58
-77 -66 -6 -8 -75 -67 -153 -131 -79 -65 -143 -123 -143 -130 0 -22 31 -56 50
-56 11 0 67 38 124 85 58 46 115 87 128 90 21 5 33 -5 88 -77 36 -45 72 -94
81 -108 9 -14 27 -37 40 -51 13 -14 42 -45 63 -70 86 -97 168 -178 270 -264
58 -49 109 -99 112 -109 5 -15 -3 -27 -32 -50 -96 -76 -200 -170 -206 -186 -4
-11 3 -26 24 -45 l29 -28 37 35 c20 19 98 84 172 143 74 60 137 112 140 115 4
5 165 139 195 163 5 4 30 26 55 48 76 69 87 72 275 79 169 7 301 30 365 64 14
7 38 17 55 20 16 4 34 11 40 16 5 4 48 28 95 52 47 24 135 82 195 128 132 101
131 100 158 125 20 18 83 71 431 358 54 45 133 111 176 147 43 36 97 81 121
100 24 19 61 51 84 70 22 20 57 48 78 64 21 15 45 35 55 45 9 9 53 46 97 82
127 102 193 172 201 214 11 62 -1 150 -25 174 -12 12 -21 25 -21 29 0 4 -21
21 -46 37 -71 45 -72 60 -10 125 80 83 96 116 96 193 0 36 -5 69 -10 72 -6 4
-16 19 -23 35 -11 26 -39 52 -126 119 -34 26 -38 37 -17 60 19 23 46 109 46
148 0 44 -31 122 -61 154 -63 69 -203 94 -303 54 -56 -22 -54 -22 -107 67 -35
58 -85 96 -151 114 -65 17 -88 17 -157 -2z m147 -94 c70 -37 87 -63 87 -136
l0 -65 -55 -50 c-30 -26 -62 -55 -70 -63 -8 -7 -60 -50 -115 -95 -55 -45 -109
-90 -121 -99 -11 -9 -45 -37 -75 -61 -30 -25 -58 -50 -64 -56 -5 -6 -48 -41
-95 -79 -47 -37 -97 -78 -113 -92 -15 -13 -31 -24 -36 -24 -5 0 -16 -3 -25 -6
-11 -4 -23 12 -46 63 -18 37 -40 85 -51 105 -10 20 -19 54 -19 75 0 43 0 43
175 185 55 44 105 86 110 92 6 6 46 40 90 76 44 35 101 82 126 104 113 101
183 145 231 146 15 0 45 -9 66 -20z m447 -175 c34 -7 85 -79 85 -119 0 -42
-38 -110 -78 -140 -19 -13 -39 -31 -45 -39 -7 -7 -61 -54 -122 -102 -60 -49
-114 -94 -120 -101 -5 -6 -42 -36 -81 -67 -39 -30 -78 -63 -87 -71 -8 -9 -55
-48 -104 -88 -48 -39 -101 -85 -118 -100 -16 -15 -33 -28 -37 -28 -4 0 -15 -8
-25 -18 -33 -34 -168 -139 -185 -145 -22 -8 -53 23 -80 78 -10 22 -32 63 -48
90 -45 77 -42 84 63 166 50 40 101 82 113 94 25 25 215 183 298 248 34 26 66
53 71 60 6 7 44 40 85 72 41 33 99 81 127 107 72 65 131 101 178 108 39 7 57
6 110 -5z m-1999 -195 c56 -24 101 -75 120 -137 13 -41 14 -59 6 -80 -6 -16
-16 -54 -21 -87 -6 -32 -15 -64 -20 -70 -5 -6 -12 -27 -15 -46 -23 -120 -52
-218 -72 -242 -52 -63 -301 -210 -401 -237 -23 -6 -44 -15 -47 -20 -8 -12
-100 -23 -131 -15 -27 7 -34 37 -12 51 7 4 28 32 47 61 18 28 37 52 41 52 4 0
10 9 14 20 3 11 23 41 44 67 20 27 58 86 84 133 27 47 52 92 57 100 6 8 15 26
20 40 6 14 14 32 20 40 19 29 58 115 69 150 30 101 74 213 93 237 12 14 43 9
104 -17z m2106 -220 c45 -13 95 -68 103 -114 14 -70 -12 -108 -145 -216 -30
-25 -59 -50 -65 -56 -5 -6 -32 -28 -60 -50 -27 -22 -131 -108 -230 -190 -99
-82 -200 -164 -225 -183 -25 -19 -52 -42 -62 -51 -40 -42 -107 -90 -124 -90
-27 0 -34 7 -85 85 -69 106 -79 123 -79 138 0 19 64 83 155 156 44 35 85 69
90 75 6 6 33 29 60 52 28 22 129 105 225 185 258 212 314 256 336 262 33 8 68
7 106 -3z m-1405 -155 c35 -81 48 -106 139 -282 83 -158 104 -196 118 -213 7
-8 16 -22 20 -30 3 -8 20 -35 36 -60 17 -25 36 -56 42 -70 15 -29 50 -83 58
-90 4 -3 33 -43 65 -90 32 -47 100 -138 152 -202 61 -77 93 -126 93 -142 0
-17 -13 -36 -42 -60 -24 -19 -86 -70 -138 -113 -52 -43 -101 -82 -108 -88 -7
-5 -21 -17 -31 -25 -19 -17 -127 -108 -230 -194 -39 -32 -79 -64 -90 -70 -11
-6 -44 -25 -73 -42 -125 -73 -230 -114 -373 -145 -22 -5 -116 -12 -210 -15
-158 -7 -235 -20 -235 -42 0 -11 -101 -88 -126 -96 -13 -4 -31 2 -52 17 -103
77 -319 285 -410 397 -29 36 -66 81 -82 100 -37 46 -72 98 -92 137 -14 29 -14
34 2 60 9 15 42 50 73 76 49 42 57 53 57 84 0 20 -9 46 -20 60 -11 14 -20 36
-20 48 0 40 23 48 113 42 88 -5 163 -33 245 -88 24 -16 45 -29 48 -29 5 0 90
-56 167 -111 88 -62 161 -109 194 -124 17 -8 34 -19 37 -24 3 -5 18 -12 33
-16 15 -3 34 -11 41 -17 7 -6 43 -21 80 -34 80 -28 229 -34 274 -10 15 8 40
17 56 21 47 10 140 100 170 164 22 49 26 69 26 156 0 89 -3 106 -27 153 -21
40 -33 52 -51 52 -34 0 -49 -39 -35 -95 6 -24 10 -82 8 -129 -4 -75 -7 -89
-34 -128 -17 -23 -51 -56 -75 -73 -41 -27 -54 -30 -146 -33 -83 -4 -109 -1
-150 16 -75 31 -76 31 -119 57 -22 13 -53 32 -70 41 -70 39 -192 124 -252 174
-7 6 -23 15 -35 21 -13 5 -41 21 -63 34 -22 14 -51 30 -65 37 -14 6 -32 17
-40 23 -40 30 -145 57 -238 60 -125 4 -127 7 -101 110 11 44 26 87 34 95 7 8
16 25 19 36 15 48 42 59 134 56 156 -6 358 67 530 191 29 20 55 37 58 37 3 0
12 6 19 13 8 6 26 21 41 32 14 11 50 41 80 67 63 55 105 79 122 69 7 -4 15
-39 18 -77 5 -61 40 -187 64 -233 5 -9 23 -47 41 -86 18 -38 38 -76 45 -83 7
-6 15 -20 19 -31 14 -45 105 -46 105 0 0 11 -15 46 -33 77 -18 31 -48 89 -66
127 -18 39 -40 84 -49 100 -14 24 -17 57 -17 160 0 120 2 133 24 170 32 53 74
98 141 150 97 75 113 72 157 -30z m1473 -380 c36 -35 54 -85 46 -129 -6 -29
-66 -96 -131 -144 -26 -20 -203 -166 -230 -190 -16 -15 -64 -54 -105 -87 -41
-32 -91 -74 -110 -93 -19 -18 -55 -45 -79 -60 l-45 -26 -53 60 c-87 96 -105
127 -94 156 9 23 105 109 225 202 28 22 56 45 61 51 6 7 42 37 81 68 39 30 79
64 89 74 10 9 45 39 79 65 34 26 66 52 71 56 32 26 55 32 108 29 46 -3 62 -9
87 -32z m-3124 -1112 c13 -16 53 -66 89 -113 36 -47 82 -105 103 -130 63 -76
263 -273 338 -333 83 -67 94 -89 57 -123 -55 -51 -64 -48 -218 87 -103 90
-209 197 -280 282 -22 27 -53 63 -68 80 -15 18 -52 69 -83 113 -47 71 -53 85
-45 107 10 27 47 57 69 57 8 0 25 -12 38 -27z"/>
</g>
</svg>
